
<svg width="32" height="32" viewBox="0 0 32 32" fill="none" xmlns="http://www.w3.org/2000/svg">
  <rect width="32" height="32" rx="16" fill="url(#paint0_linear_1_2)"/>
  <path d="M16 8C11.582 8 8 11.582 8 16C8 20.418 11.582 24 16 24C20.418 24 24 20.418 24 16C24 11.582 20.418 8 16 8ZM13 18.5C12.172 18.5 11.5 17.828 11.5 17C11.5 16.172 12.172 15.5 13 15.5C13.828 15.5 14.5 16.172 14.5 17C14.5 17.828 13.828 18.5 13 18.5ZM19 18.5C18.172 18.5 17.5 17.828 17.5 17C17.5 16.172 18.172 15.5 19 15.5C19.828 15.5 20.5 16.172 20.5 17C20.5 17.828 19.828 18.5 19 18.5Z" fill="white"/>
  <defs>
    <linearGradient id="paint0_linear_1_2" x1="4" y1="4" x2="28" y2="28" gradientUnits="userSpaceOnUse">
      <stop stop-color="#4285F4"/>
      <stop offset="0.5" stop-color="#8667F2"/>
      <stop offset="1" stop-color="#00C6B4"/>
    </linearGradient>
  </defs>
</svg>
